<svg width="24" height="27" viewBox="0 0 24 27" fill="none" xmlns="http://www.w3.org/2000/svg">
<g clip-path="url(#clip0_689_50843)">
<path d="M11.6803 17.9892C11.6545 20.124 11.543 24.5703 11.4915 26.4998L0.377593 21.7046C0.364719 21.5692 0.347555 21.4008 0.330391 21.1997C0.0343063 18.2601 -0.871111 9.32662 2.54888 4.55605C3.27836 3.53789 4.24815 2.67163 5.35095 2.00244C11.1697 5.0446 11.7532 12.5535 11.6803 17.9892Z" fill="#00B75B"/>
<path d="M23.7339 24.3077L12.9247 20.3418C12.9461 19.4468 12.959 18.6298 12.9676 18.0058C13.0448 12.4675 12.4398 4.87644 6.67688 1.3211C7.91271 0.795595 9.25582 0.5 10.5903 0.5H10.6247C14.4008 0.5 17.426 1.73164 19.6188 4.15798C24.9183 10.0247 24.0729 21.2778 23.7339 24.3077Z" fill="#00B75B"/>
</g>
<defs>
<clipPath id="clip0_689_50843">
<rect width="24" height="26" fill="white" transform="translate(0 0.5)"/>
</clipPath>
</defs>
</svg>
