<svg width="21" height="23" viewBox="0 0 21 23" fill="none" xmlns="http://www.w3.org/2000/svg">
<path d="M13.6645 21.1562L8.23444 17.8769H8.17335C8.23444 13.1445 7.76826 5.30633 4.20285 2.96904C4.00352 2.83723 6.59801 0.612457 8.52379 0.622102C8.73919 0.622102 8.94495 0.651036 9.13463 0.715336C12.8287 1.91774 13.5585 11.8135 13.671 17.385C13.716 19.6194 13.6645 21.1562 13.6645 21.1562Z" fill="white"/>
<path d="M7.24106 18.5522C7.21534 20.7416 7.21855 22.542 7.21855 22.542L0.0394887 18.7548C0.0394887 18.7548 -0.600293 7.11008 3.27055 3.64111C6.83275 5.97841 7.30214 13.8165 7.24106 18.549V18.5522Z" fill="white"/>
<path d="M20.2682 20.3109L14.7642 17.321C14.6516 11.7494 13.9218 1.85046 10.2278 0.651275C10.0349 0.586975 10.0156 0.513031 10.0156 0.513031C22.4062 -0.0881716 20.2682 20.3141 20.2682 20.3141V20.3109Z" fill="white"/>
</svg>
