<svg width="159" height="83" viewBox="0 0 159 83" fill="none" xmlns="http://www.w3.org/2000/svg">
<g clip-path="url(#clip0_261_29174)">
<path d="M35.6803 45.9892C35.6545 48.124 35.543 52.5703 35.4915 54.4998L24.3776 49.7046C24.3647 49.5692 24.3476 49.4008 24.3304 49.1997C24.0343 46.2601 23.1289 37.3266 26.5489 32.556C27.2784 31.5379 28.2481 30.6716 29.351 30.0024C35.1697 33.0446 35.7532 40.5535 35.6803 45.9892Z" fill="#00B75B"/>
<path d="M47.7339 52.3077L36.9247 48.3418C36.9461 47.4468 36.959 46.6298 36.9676 46.0058C37.0448 40.4675 36.4398 32.8764 30.6769 29.3211C31.9127 28.7956 33.2558 28.5 34.5903 28.5H34.6247C38.4008 28.5 41.426 29.7316 43.6188 32.158C48.9183 38.0247 48.0729 49.2778 47.7339 52.3077Z" fill="#00B75B"/>
</g>
<path d="M58.2259 51.3196C56.5852 51.3196 55.1683 50.9787 53.9751 50.2969C52.7891 49.608 51.8764 48.6349 51.2372 47.3778C50.598 46.1136 50.2784 44.6257 50.2784 42.9141C50.2784 41.2308 50.598 39.7536 51.2372 38.4822C51.8835 37.2038 52.7855 36.2095 53.9432 35.4993C55.1009 34.782 56.4609 34.4233 58.0234 34.4233C59.032 34.4233 59.9837 34.5866 60.8786 34.9134C61.7805 35.233 62.576 35.7301 63.2649 36.4048C63.9609 37.0795 64.5078 37.9389 64.9055 38.983C65.3033 40.0199 65.5021 41.2557 65.5021 42.6903V43.8729H52.0895V41.2734H61.8054C61.7983 40.5348 61.6385 39.8778 61.326 39.3026C61.0135 38.7202 60.5767 38.2621 60.0156 37.9283C59.4616 37.5945 58.8153 37.4276 58.0767 37.4276C57.2884 37.4276 56.5959 37.6193 55.9993 38.0028C55.4027 38.3793 54.9375 38.8764 54.6037 39.4943C54.277 40.1051 54.1101 40.7763 54.103 41.5078V43.777C54.103 44.7287 54.277 45.5455 54.625 46.2273C54.973 46.902 55.4595 47.4205 56.0845 47.7827C56.7095 48.1378 57.4411 48.3153 58.2791 48.3153C58.8402 48.3153 59.348 48.2372 59.8026 48.081C60.2571 47.9176 60.6513 47.6797 60.9851 47.3672C61.3189 47.0547 61.571 46.6676 61.7415 46.206L65.3423 46.6108C65.1151 47.5625 64.6818 48.3935 64.0426 49.1037C63.4105 49.8068 62.6009 50.3537 61.6136 50.7443C60.6264 51.1278 59.4972 51.3196 58.2259 51.3196ZM76.0091 51.3196C74.3684 51.3196 72.9515 50.9787 71.7583 50.2969C70.5723 49.608 69.6596 48.6349 69.0204 47.3778C68.3812 46.1136 68.0616 44.6257 68.0616 42.9141C68.0616 41.2308 68.3812 39.7536 69.0204 38.4822C69.6667 37.2038 70.5687 36.2095 71.7264 35.4993C72.8841 34.782 74.2441 34.4233 75.8066 34.4233C76.8152 34.4233 77.7669 34.5866 78.6618 34.9134C79.5637 35.233 80.3592 35.7301 81.0481 36.4048C81.7441 37.0795 82.291 37.9389 82.6887 38.983C83.0865 40.0199 83.2853 41.2557 83.2853 42.6903V43.8729H69.8727V41.2734H79.5886C79.5815 40.5348 79.4217 39.8778 79.1092 39.3026C78.7967 38.7202 78.3599 38.2621 77.7988 37.9283C77.2449 37.5945 76.5985 37.4276 75.8599 37.4276C75.0716 37.4276 74.3791 37.6193 73.7825 38.0028C73.1859 38.3793 72.7207 38.8764 72.3869 39.4943C72.0602 40.1051 71.8933 40.7763 71.8862 41.5078V43.777C71.8862 44.7287 72.0602 45.5455 72.4082 46.2273C72.7562 46.902 73.2427 47.4205 73.8677 47.7827C74.4927 48.1378 75.2243 48.3153 76.0623 48.3153C76.6234 48.3153 77.1312 48.2372 77.5858 48.081C78.0403 47.9176 78.4345 47.6797 78.7683 47.3672C79.1021 47.0547 79.3542 46.6676 79.5247 46.206L83.1255 46.6108C82.8983 47.5625 82.465 48.3935 81.8258 49.1037C81.1937 49.8068 80.3841 50.3537 79.3968 50.7443C78.4096 51.1278 77.2804 51.3196 76.0091 51.3196ZM99.4812 38.9616L95.9656 39.3452C95.8661 38.9901 95.6921 38.6562 95.4435 38.3438C95.2021 38.0312 94.8754 37.7791 94.4634 37.5874C94.0515 37.3956 93.5472 37.2997 92.9506 37.2997C92.1481 37.2997 91.4734 37.4737 90.9265 37.8217C90.3867 38.1697 90.1204 38.6207 90.1275 39.1747C90.1204 39.6506 90.2944 40.0376 90.6495 40.3359C91.0117 40.6342 91.6083 40.8793 92.4393 41.071L95.2305 41.6676C96.7788 42.0014 97.9293 42.5305 98.6822 43.255C99.4421 43.9794 99.8256 44.9276 99.8327 46.0994C99.8256 47.1293 99.5238 48.0384 98.9272 48.8267C98.3377 49.608 97.5174 50.2187 96.4663 50.6591C95.4151 51.0994 94.2077 51.3196 92.8441 51.3196C90.8413 51.3196 89.229 50.9006 88.0075 50.0625C86.7859 49.2173 86.0579 48.0419 85.8235 46.5362L89.5842 46.174C89.7546 46.9126 90.1168 47.4702 90.6708 47.8466C91.2248 48.223 91.9457 48.4112 92.8335 48.4112C93.7496 48.4112 94.4847 48.223 95.0387 47.8466C95.5998 47.4702 95.8803 47.005 95.8803 46.451C95.8803 45.9822 95.6992 45.5952 95.337 45.2898C94.9819 44.9844 94.4279 44.75 93.6751 44.5866L90.8839 44.0007C89.3143 43.674 88.1531 43.1236 87.4002 42.3494C86.6474 41.5682 86.2745 40.581 86.2816 39.3878C86.2745 38.3793 86.5479 37.5057 87.1019 36.767C87.663 36.0213 88.4407 35.446 89.435 35.0412C90.4364 34.6293 91.5906 34.4233 92.8974 34.4233C94.815 34.4233 96.3242 34.8317 97.4251 35.6484C98.533 36.4652 99.2184 37.5696 99.4812 38.9616ZM103.013 51V34.6364H106.869V51H103.013ZM104.952 32.3139C104.341 32.3139 103.815 32.1115 103.375 31.7067C102.935 31.2947 102.714 30.8011 102.714 30.2259C102.714 29.6435 102.935 29.1499 103.375 28.745C103.815 28.3331 104.341 28.1271 104.952 28.1271C105.57 28.1271 106.095 28.3331 106.528 28.745C106.969 29.1499 107.189 29.6435 107.189 30.2259C107.189 30.8011 106.969 31.2947 106.528 31.7067C106.095 32.1115 105.57 32.3139 104.952 32.3139ZM114.692 29.1818V51H110.835V29.1818H114.692ZM125.795 51.3196C124.197 51.3196 122.812 50.968 121.64 50.2649C120.468 49.5618 119.559 48.5781 118.913 47.3139C118.274 46.0497 117.954 44.5724 117.954 42.8821C117.954 41.1918 118.274 39.7109 118.913 38.4396C119.559 37.1683 120.468 36.1811 121.64 35.478C122.812 34.7749 124.197 34.4233 125.795 34.4233C127.393 34.4233 128.778 34.7749 129.95 35.478C131.122 36.1811 132.027 37.1683 132.667 38.4396C133.313 39.7109 133.636 41.1918 133.636 42.8821C133.636 44.5724 133.313 46.0497 132.667 47.3139C132.027 48.5781 131.122 49.5618 129.95 50.2649C128.778 50.968 127.393 51.3196 125.795 51.3196ZM125.816 48.2301C126.683 48.2301 127.407 47.9922 127.99 47.5163C128.572 47.0334 129.005 46.3871 129.289 45.5774C129.581 44.7678 129.726 43.8658 129.726 42.8714C129.726 41.87 129.581 40.9645 129.289 40.1548C129.005 39.3381 128.572 38.6882 127.99 38.2053C127.407 37.7223 126.683 37.4808 125.816 37.4808C124.929 37.4808 124.19 37.7223 123.6 38.2053C123.018 38.6882 122.581 39.3381 122.29 40.1548C122.006 40.9645 121.864 41.87 121.864 42.8714C121.864 43.8658 122.006 44.7678 122.29 45.5774C122.581 46.3871 123.018 47.0334 123.6 47.5163C124.19 47.9922 124.929 48.2301 125.816 48.2301Z" fill="#003449"/>
<defs>
<clipPath id="clip0_261_29174">
<rect width="24" height="26" fill="white" transform="translate(24 28.5)"/>
</clipPath>
</defs>
</svg>
