<svg width="240" height="76" viewBox="0 0 240 76" fill="none" xmlns="http://www.w3.org/2000/svg">
<g clip-path="url(#clip0_1363_3226)">
<path d="M27.6799 42.4893C27.6542 44.6242 27.5426 49.0704 27.4911 51L16.3772 46.2048C16.3644 46.0693 16.3472 45.901 16.33 45.6998C16.0339 42.7603 15.1285 33.8268 18.5485 29.0562C19.278 28.038 20.2478 27.1718 21.3506 26.5026C27.1693 29.5448 27.7529 37.0537 27.6799 42.4893Z" fill="#00B75B"/>
<path d="M39.7338 48.8077L28.9246 44.8418C28.946 43.9468 28.9589 43.1298 28.9675 42.5058C29.0447 36.9675 28.4397 29.3764 22.6768 25.8211C23.9126 25.2956 25.2557 25 26.5902 25H26.6245C30.4007 25 33.4259 26.2316 35.6186 28.658C40.9181 34.5247 40.0728 45.7778 39.7338 48.8077Z" fill="#00B75B"/>
</g>
<path d="M59.936 39.619C59.936 40.199 59.8973 40.721 59.82 41.185H48.075C48.1717 42.345 48.5777 43.2537 49.293 43.911C50.0083 44.5683 50.888 44.897 51.932 44.897C53.44 44.897 54.513 44.2493 55.151 42.954H59.53C59.066 44.5007 58.1767 45.7767 56.862 46.782C55.5473 47.768 53.933 48.261 52.019 48.261C50.4723 48.261 49.0803 47.9227 47.843 47.246C46.625 46.55 45.668 45.5737 44.972 44.317C44.2953 43.0603 43.957 41.6103 43.957 39.967C43.957 38.3043 44.2953 36.8447 44.972 35.588C45.6487 34.3313 46.596 33.3647 47.814 32.688C49.032 32.0113 50.4337 31.673 52.019 31.673C53.5463 31.673 54.9093 32.0017 56.108 32.659C57.326 33.3163 58.2637 34.254 58.921 35.472C59.5977 36.6707 59.936 38.053 59.936 39.619ZM55.731 38.459C55.7117 37.415 55.3347 36.5837 54.6 35.965C53.8653 35.327 52.9663 35.008 51.903 35.008C50.8977 35.008 50.047 35.3173 49.351 35.936C48.6743 36.5353 48.2587 37.3763 48.104 38.459H55.731ZM77.8344 39.619C77.8344 40.199 77.7958 40.721 77.7184 41.185H65.9734C66.0701 42.345 66.4761 43.2537 67.1914 43.911C67.9068 44.5683 68.7864 44.897 69.8304 44.897C71.3384 44.897 72.4114 44.2493 73.0494 42.954H77.4284C76.9644 44.5007 76.0751 45.7767 74.7604 46.782C73.4458 47.768 71.8314 48.261 69.9174 48.261C68.3708 48.261 66.9788 47.9227 65.7414 47.246C64.5234 46.55 63.5664 45.5737 62.8704 44.317C62.1938 43.0603 61.8554 41.6103 61.8554 39.967C61.8554 38.3043 62.1938 36.8447 62.8704 35.588C63.5471 34.3313 64.4944 33.3647 65.7124 32.688C66.9304 32.0113 68.3321 31.673 69.9174 31.673C71.4448 31.673 72.8078 32.0017 74.0064 32.659C75.2244 33.3163 76.1621 34.254 76.8194 35.472C77.4961 36.6707 77.8344 38.053 77.8344 39.619ZM73.6294 38.459C73.6101 37.415 73.2331 36.5837 72.4984 35.965C71.7638 35.327 70.8648 35.008 69.8014 35.008C68.7961 35.008 67.9454 35.3173 67.2494 35.936C66.5728 36.5353 66.1571 37.3763 66.0024 38.459H73.6294ZM86.9459 48.261C85.6312 48.261 84.4519 48.029 83.4079 47.565C82.3639 47.0817 81.5325 46.434 80.9139 45.622C80.3145 44.81 79.9859 43.911 79.9279 42.925H84.0169C84.0942 43.5437 84.3939 44.056 84.9159 44.462C85.4572 44.868 86.1242 45.071 86.9169 45.071C87.6902 45.071 88.2895 44.9163 88.7149 44.607C89.1595 44.2977 89.3819 43.9013 89.3819 43.418C89.3819 42.896 89.1112 42.5093 88.5699 42.258C88.0479 41.9873 87.2069 41.6973 86.0469 41.388C84.8482 41.098 83.8622 40.7983 83.0889 40.489C82.3349 40.1797 81.6775 39.706 81.1169 39.068C80.5755 38.43 80.3049 37.5697 80.3049 36.487C80.3049 35.5977 80.5562 34.7857 81.0589 34.051C81.5809 33.3163 82.3155 32.7363 83.2629 32.311C84.2295 31.8857 85.3605 31.673 86.6559 31.673C88.5699 31.673 90.0972 32.1563 91.2379 33.123C92.3785 34.0703 93.0069 35.356 93.1229 36.98H89.2369C89.1789 36.342 88.9082 35.8393 88.4249 35.472C87.9609 35.0853 87.3325 34.892 86.5399 34.892C85.8052 34.892 85.2349 35.0273 84.8289 35.298C84.4422 35.5687 84.2489 35.9457 84.2489 36.429C84.2489 36.9703 84.5195 37.386 85.0609 37.676C85.6022 37.9467 86.4432 38.227 87.5839 38.517C88.7439 38.807 89.7009 39.1067 90.4549 39.416C91.2089 39.7253 91.8565 40.2087 92.3979 40.866C92.9585 41.504 93.2485 42.3547 93.2679 43.418C93.2679 44.346 93.0069 45.1773 92.4849 45.912C91.9822 46.6467 91.2475 47.2267 90.2809 47.652C89.3335 48.058 88.2219 48.261 86.9459 48.261ZM98.6596 30.02C97.9443 30.02 97.3449 29.7977 96.8616 29.353C96.3976 28.889 96.1656 28.3187 96.1656 27.642C96.1656 26.9653 96.3976 26.4047 96.8616 25.96C97.3449 25.496 97.9443 25.264 98.6596 25.264C99.3749 25.264 99.9646 25.496 100.429 25.96C100.912 26.4047 101.154 26.9653 101.154 27.642C101.154 28.3187 100.912 28.889 100.429 29.353C99.9646 29.7977 99.3749 30.02 98.6596 30.02ZM100.661 31.934V48H96.6006V31.934H100.661ZM108.732 26.54V48H104.672V26.54H108.732ZM119.877 48.261C118.331 48.261 116.939 47.9227 115.701 47.246C114.464 46.55 113.488 45.5737 112.772 44.317C112.076 43.0603 111.728 41.6103 111.728 39.967C111.728 38.3237 112.086 36.8737 112.801 35.617C113.536 34.3603 114.532 33.3937 115.788 32.717C117.045 32.021 118.447 31.673 119.993 31.673C121.54 31.673 122.942 32.021 124.198 32.717C125.455 33.3937 126.441 34.3603 127.156 35.617C127.891 36.8737 128.258 38.3237 128.258 39.967C128.258 41.6103 127.881 43.0603 127.127 44.317C126.393 45.5737 125.387 46.55 124.111 47.246C122.855 47.9227 121.443 48.261 119.877 48.261ZM119.877 44.723C120.612 44.723 121.298 44.549 121.936 44.201C122.594 43.8337 123.116 43.2923 123.502 42.577C123.889 41.8617 124.082 40.9917 124.082 39.967C124.082 38.4397 123.676 37.27 122.864 36.458C122.072 35.6267 121.095 35.211 119.935 35.211C118.775 35.211 117.799 35.6267 117.006 36.458C116.233 37.27 115.846 38.4397 115.846 39.967C115.846 41.4943 116.223 42.6737 116.977 43.505C117.751 44.317 118.717 44.723 119.877 44.723Z" fill="white"/>
<defs>
<clipPath id="clip0_1363_3226">
<rect width="24" height="26" fill="white" transform="translate(16 25)"/>
</clipPath>
</defs>
</svg>
