<svg width="158" height="93" viewBox="0 0 158 93" fill="none" xmlns="http://www.w3.org/2000/svg">
<path d="M37.6645 56.1562L32.2344 52.8769H32.1734C32.2344 48.1445 31.7683 40.3063 28.2028 37.969C28.0035 37.8372 30.598 35.6125 32.5238 35.6221C32.7392 35.6221 32.9449 35.651 33.1346 35.7153C36.8287 36.9177 37.5585 46.8135 37.671 52.385C37.716 54.6194 37.6645 56.1562 37.6645 56.1562Z" fill="white"/>
<path d="M31.2411 53.5522C31.2153 55.7416 31.2186 57.542 31.2186 57.542L24.0395 53.7548C24.0395 53.7548 23.3997 42.1101 27.2705 38.6411C30.8328 40.9784 31.3021 48.8165 31.2411 53.549V53.5522Z" fill="white"/>
<path d="M44.2682 55.3109L38.7642 52.321C38.6516 46.7494 37.9218 36.8505 34.2278 35.6513C34.0349 35.587 34.0156 35.513 34.0156 35.513C46.4062 34.9118 44.2682 55.3141 44.2682 55.3141V55.3109Z" fill="white"/>
<path d="M63.3449 48.14C63.3449 48.72 63.3063 49.242 63.2289 49.706H51.4839C51.5806 50.866 51.9866 51.7747 52.7019 52.432C53.4173 53.0893 54.2969 53.418 55.3409 53.418C56.8489 53.418 57.9219 52.7703 58.5599 51.475H62.9389C62.4749 53.0217 61.5856 54.2977 60.2709 55.303C58.9563 56.289 57.3419 56.782 55.4279 56.782C53.8813 56.782 52.4893 56.4437 51.2519 55.767C50.0339 55.071 49.0769 54.0947 48.3809 52.838C47.7043 51.5813 47.3659 50.1313 47.3659 48.488C47.3659 46.8253 47.7043 45.3657 48.3809 44.109C49.0576 42.8523 50.0049 41.8857 51.2229 41.209C52.4409 40.5323 53.8426 40.194 55.4279 40.194C56.9553 40.194 58.3183 40.5227 59.5169 41.18C60.7349 41.8373 61.6726 42.775 62.3299 43.993C63.0066 45.1917 63.3449 46.574 63.3449 48.14ZM59.1399 46.98C59.1206 45.936 58.7436 45.1047 58.0089 44.486C57.2743 43.848 56.3753 43.529 55.3119 43.529C54.3066 43.529 53.4559 43.8383 52.7599 44.457C52.0833 45.0563 51.6676 45.8973 51.5129 46.98H59.1399ZM81.2434 48.14C81.2434 48.72 81.2047 49.242 81.1274 49.706H69.3824C69.479 50.866 69.885 51.7747 70.6004 52.432C71.3157 53.0893 72.1954 53.418 73.2394 53.418C74.7474 53.418 75.8204 52.7703 76.4584 51.475H80.8374C80.3734 53.0217 79.484 54.2977 78.1694 55.303C76.8547 56.289 75.2404 56.782 73.3264 56.782C71.7797 56.782 70.3877 56.4437 69.1504 55.767C67.9324 55.071 66.9754 54.0947 66.2794 52.838C65.6027 51.5813 65.2644 50.1313 65.2644 48.488C65.2644 46.8253 65.6027 45.3657 66.2794 44.109C66.956 42.8523 67.9034 41.8857 69.1214 41.209C70.3394 40.5323 71.741 40.194 73.3264 40.194C74.8537 40.194 76.2167 40.5227 77.4154 41.18C78.6334 41.8373 79.571 42.775 80.2284 43.993C80.905 45.1917 81.2434 46.574 81.2434 48.14ZM77.0384 46.98C77.019 45.936 76.642 45.1047 75.9074 44.486C75.1727 43.848 74.2737 43.529 73.2104 43.529C72.205 43.529 71.3544 43.8383 70.6584 44.457C69.9817 45.0563 69.566 45.8973 69.4114 46.98H77.0384ZM90.3548 56.782C89.0401 56.782 87.8608 56.55 86.8168 56.086C85.7728 55.6027 84.9415 54.955 84.3228 54.143C83.7235 53.331 83.3948 52.432 83.3368 51.446H87.4258C87.5031 52.0647 87.8028 52.577 88.3248 52.983C88.8661 53.389 89.5331 53.592 90.3258 53.592C91.0991 53.592 91.6985 53.4373 92.1238 53.128C92.5685 52.8187 92.7908 52.4223 92.7908 51.939C92.7908 51.417 92.5201 51.0303 91.9788 50.779C91.4568 50.5083 90.6158 50.2183 89.4558 49.909C88.2571 49.619 87.2711 49.3193 86.4978 49.01C85.7438 48.7007 85.0865 48.227 84.5258 47.589C83.9845 46.951 83.7138 46.0907 83.7138 45.008C83.7138 44.1187 83.9651 43.3067 84.4678 42.572C84.9898 41.8373 85.7245 41.2573 86.6718 40.832C87.6385 40.4067 88.7695 40.194 90.0648 40.194C91.9788 40.194 93.5061 40.6773 94.6468 41.644C95.7875 42.5913 96.4158 43.877 96.5318 45.501H92.6458C92.5878 44.863 92.3171 44.3603 91.8338 43.993C91.3698 43.6063 90.7415 43.413 89.9488 43.413C89.2141 43.413 88.6438 43.5483 88.2378 43.819C87.8511 44.0897 87.6578 44.4667 87.6578 44.95C87.6578 45.4913 87.9285 45.907 88.4698 46.197C89.0111 46.4677 89.8521 46.748 90.9928 47.038C92.1528 47.328 93.1098 47.6277 93.8638 47.937C94.6178 48.2463 95.2655 48.7297 95.8068 49.387C96.3675 50.025 96.6575 50.8757 96.6768 51.939C96.6768 52.867 96.4158 53.6983 95.8938 54.433C95.3911 55.1677 94.6565 55.7477 93.6898 56.173C92.7425 56.579 91.6308 56.782 90.3548 56.782ZM102.069 38.541C101.353 38.541 100.754 38.3187 100.271 37.874C99.8065 37.41 99.5745 36.8397 99.5745 36.163C99.5745 35.4863 99.8065 34.9257 100.271 34.481C100.754 34.017 101.353 33.785 102.069 33.785C102.784 33.785 103.374 34.017 103.838 34.481C104.321 34.9257 104.563 35.4863 104.563 36.163C104.563 36.8397 104.321 37.41 103.838 37.874C103.374 38.3187 102.784 38.541 102.069 38.541ZM104.07 40.455V56.521H100.01V40.455H104.07ZM112.141 35.061V56.521H108.081V35.061H112.141ZM123.286 56.782C121.739 56.782 120.347 56.4437 119.11 55.767C117.873 55.071 116.896 54.0947 116.181 52.838C115.485 51.5813 115.137 50.1313 115.137 48.488C115.137 46.8447 115.495 45.3947 116.21 44.138C116.945 42.8813 117.94 41.9147 119.197 41.238C120.454 40.542 121.855 40.194 123.402 40.194C124.949 40.194 126.35 40.542 127.607 41.238C128.864 41.9147 129.85 42.8813 130.565 44.138C131.3 45.3947 131.667 46.8447 131.667 48.488C131.667 50.1313 131.29 51.5813 130.536 52.838C129.801 54.0947 128.796 55.071 127.52 55.767C126.263 56.4437 124.852 56.782 123.286 56.782ZM123.286 53.244C124.021 53.244 124.707 53.07 125.345 52.722C126.002 52.3547 126.524 51.8133 126.911 51.098C127.298 50.3827 127.491 49.5127 127.491 48.488C127.491 46.9607 127.085 45.791 126.273 44.979C125.48 44.1477 124.504 43.732 123.344 43.732C122.184 43.732 121.208 44.1477 120.415 44.979C119.642 45.791 119.255 46.9607 119.255 48.488C119.255 50.0153 119.632 51.1947 120.386 52.026C121.159 52.838 122.126 53.244 123.286 53.244Z" fill="white"/>
</svg>
