<svg width="24" height="24" viewBox="0 0 24 24" fill="none" xmlns="http://www.w3.org/2000/svg">
<g filter="url(#filter0_d_857_27738)">
<path fill-rule="evenodd" clip-rule="evenodd" d="M14.443 4.10194L13.1932 2.85217C12.5342 2.19316 11.4657 2.19316 10.8067 2.85217L9.55694 4.10194H7.78949C6.85751 4.10194 6.10199 4.85746 6.10199 5.78944V7.5569L4.85221 8.80667C4.1932 9.46568 4.1932 10.5341 4.85221 11.1932L6.10199 12.4429V14.2104C6.10199 15.1424 6.85751 15.8979 7.78949 15.8979H9.55694L10.8067 17.1477C11.4657 17.8067 12.5342 17.8067 13.1932 17.1477L14.443 15.8979H16.2104C17.1424 15.8979 17.8979 15.1424 17.8979 14.2104V12.4429L19.1477 11.1932C19.8067 10.5341 19.8067 9.46568 19.1477 8.80667L17.8979 7.5569V5.78944C17.8979 4.85746 17.1424 4.10194 16.2104 4.10194H14.443ZM13.8122 5.06219C13.9177 5.16768 14.0608 5.22694 14.21 5.22694H16.2104C16.5211 5.22694 16.7729 5.47878 16.7729 5.78944V7.78989C16.7729 7.93908 16.8322 8.08215 16.9377 8.18764L18.3522 9.60217C18.5719 9.82184 18.5719 10.178 18.3522 10.3977L16.9377 11.8122C16.8322 11.9177 16.7729 12.0608 16.7729 12.2099V14.2104C16.7729 14.521 16.5211 14.7729 16.2104 14.7729H14.21C14.0608 14.7729 13.9177 14.8321 13.8122 14.9376L12.3977 16.3522C12.178 16.5718 11.8219 16.5718 11.6022 16.3522L10.1877 14.9376C10.0822 14.8321 9.93912 14.7729 9.78994 14.7729H7.78949C7.47883 14.7729 7.22699 14.521 7.22699 14.2104V12.2099C7.22699 12.0608 7.16773 11.9177 7.06224 11.8122L5.64771 10.3977C5.42804 10.178 5.42804 9.82184 5.64771 9.60217L7.06224 8.18764C7.16773 8.08215 7.22699 7.93908 7.22699 7.78989V5.78944C7.22699 5.47878 7.47883 5.22694 7.78949 5.22694H9.78994C9.93912 5.22694 10.0822 5.16768 10.1877 5.06219L11.6022 3.64766C11.8219 3.42799 12.178 3.42799 12.3977 3.64766L13.8122 5.06219Z" fill="white"/>
<path d="M14.2099 5.22694C14.0608 5.22694 13.9177 5.16768 13.8122 5.06219L12.3977 3.64766C12.178 3.42799 11.8218 3.42799 11.6022 3.64766L10.1876 5.06219C10.0821 5.16768 9.93907 5.22694 9.78989 5.22694H7.78944C7.47878 5.22694 7.22694 5.47878 7.22694 5.78944V7.78989C7.22694 7.93907 7.16768 8.08215 7.06219 8.18764L5.64766 9.60217C5.42799 9.82184 5.42799 10.178 5.64766 10.3977L7.06219 11.8122C7.16768 11.9177 7.22694 12.0608 7.22694 12.2099V14.2104C7.22694 14.521 7.47878 14.7729 7.78944 14.7729H9.78989C9.93907 14.7729 10.0821 14.8321 10.1876 14.9376L11.6022 16.3522C11.8218 16.5718 12.178 16.5718 12.3977 16.3522L13.8122 14.9376C13.9177 14.8321 14.0608 14.7729 14.2099 14.7729H16.2104C16.521 14.7729 16.7729 14.521 16.7729 14.2104V12.2099C16.7729 12.0608 16.8321 11.9177 16.9376 11.8122L18.3522 10.3977C18.5718 10.178 18.5718 9.82184 18.3522 9.60217L16.9376 8.18764C16.8321 8.08215 16.7729 7.93907 16.7729 7.78989V5.78944C16.7729 5.47878 16.521 5.22694 16.2104 5.22694H14.2099Z" fill="#1ABE6B"/>
<path fill-rule="evenodd" clip-rule="evenodd" d="M15.0227 8.52303L11.25 12.2958L9.3522 10.398L10.1477 9.60254L11.25 10.7048L14.2272 7.72754L15.0227 8.52303Z" fill="white"/>
</g>
<defs>
<filter id="filter0_d_857_27738" x="-1" y="-1" width="26" height="26" filterUnits="userSpaceOnUse" color-interpolation-filters="sRGB">
<feFlood flood-opacity="0" result="BackgroundImageFix"/>
<feColorMatrix in="SourceAlpha" type="matrix" values="0 0 0 0 0 0 0 0 0 0 0 0 0 0 0 0 0 0 127 0" result="hardAlpha"/>
<feOffset dy="2"/>
<feGaussianBlur stdDeviation="2"/>
<feColorMatrix type="matrix" values="0 0 0 0 0.105882 0 0 0 0 0.109804 0 0 0 0 0.113725 0 0 0 0.04 0"/>
<feBlend mode="normal" in2="BackgroundImageFix" result="effect1_dropShadow_857_27738"/>
<feBlend mode="normal" in="SourceGraphic" in2="effect1_dropShadow_857_27738" result="shape"/>
</filter>
</defs>
</svg>
